<svg width="128" height="128" viewBox="0 0 128 128" fill="none" xmlns="http://www.w3.org/2000/svg">
<path d="M80.5605 125.82C68.6642 129.007 56.101 128.694 44.3784 124.918C32.6557 121.142 22.2715 114.064 14.4715 104.533C6.67162 95.0022 1.7873 83.4231 0.40462 71.1852C-0.978061 58.9473 1.19962 46.5704 6.67639 35.5394L64 64L80.5605 125.82Z" fill="#F8FAFB" fill-opacity="0.75"/>
<path d="M128 64C128 76.3158 124.447 88.37 117.766 98.7164C111.085 109.063 101.561 117.262 90.3367 122.33C79.1121 127.398 66.6635 129.12 54.4846 127.289C42.3057 125.458 30.9138 120.151 21.6757 112.007L64 64H128Z" fill="#F8FAFB" fill-opacity="0.75"/>
<path d="M64 6C75.1612 6 86.0853 9.22033 95.4617 15.2746C104.838 21.3289 112.269 29.96 116.861 40.1323C121.454 50.3047 123.015 61.5862 121.355 72.6233C119.696 83.6604 114.887 93.9843 107.506 102.356L64 64V6Z" fill="#F8FAFB" fill-opacity="0.75"/>
<path d="M7.05347 75.0042C4.93589 64.0458 6.02512 52.7091 10.1905 42.3543C14.3558 31.9995 21.4204 23.0665 30.5366 16.627C39.6527 10.1875 50.4333 6.51508 61.5848 6.05031C72.7363 5.58554 83.785 8.34818 93.4054 14.0068L64 64L7.05347 75.0042Z" fill="#F8FAFB" fill-opacity="0.75"/>
<circle cx="63" cy="63" r="48" fill="#F8FAFB"/>
</svg>
