<svg width="16" height="16" viewBox="0 0 16 16" fill="none" xmlns="http://www.w3.org/2000/svg">
<g clip-path="url(#clip0_8_92)">
<path d="M15 1.49825L10.9965 1.49826V0.501762C10.9965 0.225512 10.7728 0.00176239 10.4965 0.00176239C10.2203 0.00176239 9.9965 0.225512 9.9965 0.501762V1.49801H5.9965V0.501762C5.9965 0.225512 5.77275 0.00176239 5.4965 0.00176239C5.22025 0.00176239 4.9965 0.225512 4.9965 0.501762V1.49801H1C0.44775 1.49801 0 1.94576 0 2.49801V14.998C0 15.5502 0.44775 15.998 1 15.998H15C15.5523 15.998 16 15.5502 16 14.998V2.49801C16 1.946 15.5523 1.49825 15 1.49825ZM15 14.998H1V2.49801H4.9965V3.00176C4.9965 3.278 5.22025 3.50176 5.4965 3.50176C5.77275 3.50176 5.9965 3.278 5.9965 3.00176V2.49826H9.9965V3.00201C9.9965 3.27826 10.2203 3.50201 10.4965 3.50201C10.7728 3.50201 10.9965 3.27826 10.9965 3.00201V2.49826H15V14.998ZM11.5 7.99825H12.5C12.776 7.99825 13 7.77425 13 7.49825V6.49825C13 6.22225 12.776 5.99825 12.5 5.99825H11.5C11.224 5.99825 11 6.22225 11 6.49825V7.49825C11 7.77425 11.224 7.99825 11.5 7.99825ZM11.5 11.998H12.5C12.776 11.998 13 11.7742 13 11.498V10.498C13 10.222 12.776 9.998 12.5 9.998H11.5C11.224 9.998 11 10.222 11 10.498V11.498C11 11.7745 11.224 11.998 11.5 11.998ZM8.5 9.998H7.5C7.224 9.998 7 10.222 7 10.498V11.498C7 11.7742 7.224 11.998 7.5 11.998H8.5C8.776 11.998 9 11.7742 9 11.498V10.498C9 10.2222 8.776 9.998 8.5 9.998ZM8.5 5.99825H7.5C7.224 5.99825 7 6.22225 7 6.49825V7.49825C7 7.77425 7.224 7.99825 7.5 7.99825H8.5C8.776 7.99825 9 7.77425 9 7.49825V6.49825C9 6.222 8.776 5.99825 8.5 5.99825ZM4.5 5.99825H3.5C3.224 5.99825 3 6.22225 3 6.49825V7.49825C3 7.77425 3.224 7.99825 3.5 7.99825H4.5C4.776 7.99825 5 7.77425 5 7.49825V6.49825C5 6.222 4.776 5.99825 4.5 5.99825ZM4.5 9.998H3.5C3.224 9.998 3 10.222 3 10.498V11.498C3 11.7742 3.224 11.998 3.5 11.998H4.5C4.776 11.998 5 11.7742 5 11.498V10.498C5 10.2222 4.776 9.998 4.5 9.998Z" fill="#F8FAFB"/>
</g>
<defs>
<clipPath id="clip0_8_92">
<rect width="16" height="16" fill="white"/>
</clipPath>
</defs>
</svg>
