<svg width="40" height="40" viewBox="0 0 40 40" fill="none" xmlns="http://www.w3.org/2000/svg">
<path d="M17.6667 27L29.4167 15.25L27.0833 12.9167L17.6667 22.3333L12.9167 17.5833L10.5833 19.9167L17.6667 27ZM8.33334 35C7.41667 35 6.63167 34.6733 5.97834 34.02C5.325 33.3667 4.99889 32.5822 5 31.6667V8.33334C5 7.41667 5.32667 6.63167 5.98 5.97834C6.63334 5.325 7.41778 4.99889 8.33334 5H31.6667C32.5833 5 33.3683 5.32667 34.0217 5.98C34.675 6.63334 35.0011 7.41778 35 8.33334V31.6667C35 32.5833 34.6733 33.3683 34.02 34.0217C33.3667 34.675 32.5822 35.0011 31.6667 35H8.33334Z" fill="#9DC644"/>
</svg>
