<svg width="24" height="24" viewBox="0 0 24 24" fill="none" xmlns="http://www.w3.org/2000/svg">
<path d="M12.8484 12.8484C12.6221 13.067 12.319 13.1879 12.0043 13.1852C11.6897 13.1825 11.3887 13.0563 11.1662 12.8338C10.9437 12.6113 10.8175 12.3103 10.8148 11.9957C10.8121 11.681 10.933 11.3779 11.1516 11.1516L18.3516 3.9516C18.4623 3.83698 18.5947 3.74557 18.7411 3.68268C18.8875 3.61978 19.045 3.58668 19.2043 3.5853C19.3637 3.58391 19.5217 3.61427 19.6692 3.67461C19.8166 3.73495 19.9506 3.82405 20.0633 3.93672C20.176 4.04939 20.2651 4.18338 20.3254 4.33085C20.3857 4.47833 20.4161 4.63634 20.4147 4.79568C20.4133 4.95501 20.3802 5.11248 20.3173 5.25888C20.2544 5.40529 20.163 5.5377 20.0484 5.6484L12.8484 12.8484Z" fill="#94A6B3"/>
<path d="M18 18V13.8C18 13.4817 18.1264 13.1765 18.3515 12.9515C18.5765 12.7264 18.8817 12.6 19.2 12.6C19.5183 12.6 19.8235 12.7264 20.0485 12.9515C20.2736 13.1765 20.4 13.4817 20.4 13.8V19.2C20.4 19.5182 20.2736 19.8235 20.0485 20.0485C19.8235 20.2736 19.5183 20.4 19.2 20.4H4.80001C4.48175 20.4 4.17652 20.2736 3.95148 20.0485C3.72643 19.8235 3.60001 19.5182 3.60001 19.2V4.79999C3.60001 4.48173 3.72643 4.17651 3.95148 3.95146C4.17652 3.72642 4.48175 3.59999 4.80001 3.59999H10.2C10.5183 3.59999 10.8235 3.72642 11.0485 3.95146C11.2736 4.17651 11.4 4.48173 11.4 4.79999C11.4 5.11825 11.2736 5.42348 11.0485 5.64852C10.8235 5.87356 10.5183 5.99999 10.2 5.99999H6.00001V18H18ZM20.4 9.59999C20.4 9.91825 20.2736 10.2235 20.0485 10.4485C19.8235 10.6736 19.5183 10.8 19.2 10.8C18.8817 10.8 18.5765 10.6736 18.3515 10.4485C18.1264 10.2235 18 9.91825 18 9.59999V4.79999C18 4.48173 18.1264 4.17651 18.3515 3.95146C18.5765 3.72642 18.8817 3.59999 19.2 3.59999C19.5183 3.59999 19.8235 3.72642 20.0485 3.95146C20.2736 4.17651 20.4 4.48173 20.4 4.79999V9.59999Z" fill="#94A6B3"/>
<path d="M14.4 5.99999C14.0818 5.99999 13.7765 5.87356 13.5515 5.64852C13.3264 5.42348 13.2 5.11825 13.2 4.79999C13.2 4.48173 13.3264 4.17651 13.5515 3.95146C13.7765 3.72642 14.0818 3.59999 14.4 3.59999H19.2C19.5183 3.59999 19.8235 3.72642 20.0485 3.95146C20.2736 4.17651 20.4 4.48173 20.4 4.79999C20.4 5.11825 20.2736 5.42348 20.0485 5.64852C19.8235 5.87356 19.5183 5.99999 19.2 5.99999H14.4Z" fill="#94A6B3"/>
</svg>
