<svg width="40" height="40" viewBox="0 0 40 40" fill="none" xmlns="http://www.w3.org/2000/svg">
<path d="M37 29.3891L23.3359 5.65938C22.9945 5.07801 22.507 4.59597 21.9219 4.26104C21.3367 3.9261 20.6742 3.7499 20 3.7499C19.3257 3.7499 18.6632 3.9261 18.0781 4.26104C17.4929 4.59597 17.0055 5.07801 16.664 5.65938L2.99997 29.3891C2.67143 29.9514 2.49829 30.5909 2.49829 31.2422C2.49829 31.8934 2.67143 32.533 2.99997 33.0953C3.33705 33.6802 3.82367 34.1649 4.40991 34.4996C4.99614 34.8343 5.66088 35.007 6.3359 35H33.664C34.3385 35.0065 35.0026 34.8335 35.5883 34.4988C36.1739 34.1641 36.66 33.6797 36.9968 33.0953C37.3259 32.5333 37.4995 31.8939 37.5001 31.2426C37.5006 30.5914 37.328 29.9517 37 29.3891ZM18.75 16.25C18.75 15.9185 18.8817 15.6005 19.1161 15.3661C19.3505 15.1317 19.6684 15 20 15C20.3315 15 20.6494 15.1317 20.8839 15.3661C21.1183 15.6005 21.25 15.9185 21.25 16.25V22.5C21.25 22.8315 21.1183 23.1495 20.8839 23.3839C20.6494 23.6183 20.3315 23.75 20 23.75C19.6684 23.75 19.3505 23.6183 19.1161 23.3839C18.8817 23.1495 18.75 22.8315 18.75 22.5V16.25ZM20 30C19.6291 30 19.2666 29.89 18.9583 29.684C18.6499 29.478 18.4096 29.1851 18.2677 28.8425C18.1258 28.4999 18.0886 28.1229 18.161 27.7592C18.2333 27.3955 18.4119 27.0614 18.6741 26.7992C18.9364 26.537 19.2705 26.3584 19.6342 26.286C19.9979 26.2137 20.3749 26.2508 20.7175 26.3927C21.0601 26.5346 21.3529 26.775 21.559 27.0833C21.765 27.3917 21.875 27.7542 21.875 28.125C21.875 28.6223 21.6774 29.0992 21.3258 29.4508C20.9742 29.8025 20.4972 30 20 30Z" fill="#F05352"/>
</svg>
