<svg width="40" height="40" viewBox="0 0 40 40" fill="none" xmlns="http://www.w3.org/2000/svg">
<rect width="40" height="40" rx="20" fill="#F8FAFB"/>
<path d="M21.4609 20.3125C21.4609 20.7708 21.401 21.2057 21.2812 21.6172C21.1667 22.0234 21.0026 22.401 20.7891 22.75C20.5755 23.099 20.3229 23.4115 20.0312 23.6875C19.7396 23.9635 19.4193 24.2005 19.0703 24.3984C18.7266 24.5911 18.3594 24.7396 17.9688 24.8438C17.5781 24.9479 17.1797 25 16.7734 25H13.1094C12.6979 25 12.2969 24.9479 11.9062 24.8438C11.5156 24.7396 11.1458 24.5911 10.7969 24.3984C10.4531 24.2005 10.1354 23.9635 9.84375 23.6875C9.55208 23.4115 9.29948 23.099 9.08594 22.75C8.8776 22.401 8.71354 22.0234 8.59375 21.6172C8.47917 21.2057 8.42188 20.7708 8.42188 20.3125V18.4844C8.42188 17.7969 8.54948 17.1667 8.80469 16.5938C9.0651 16.0208 9.41146 15.5286 9.84375 15.1172C10.276 14.7005 10.7734 14.3776 11.3359 14.1484C11.9036 13.9141 12.4948 13.7969 13.1094 13.7969H16.7734C17.1797 13.7969 17.5781 13.849 17.9688 13.9531C18.3594 14.0573 18.7266 14.2083 19.0703 14.4062C19.4193 14.599 19.7396 14.8333 20.0312 15.1094C20.3229 15.3854 20.5755 15.6979 20.7891 16.0469C21.0026 16.3958 21.1667 16.776 21.2812 17.1875C21.401 17.5938 21.4609 18.026 21.4609 18.4844V20.3125ZM19.4141 18.4844C19.4141 18.0833 19.3411 17.7188 19.1953 17.3906C19.0495 17.0625 18.8542 16.7812 18.6094 16.5469C18.3698 16.3125 18.0911 16.1328 17.7734 16.0078C17.4557 15.8828 17.1224 15.8229 16.7734 15.8281H13.1094C12.7708 15.8229 12.4401 15.8828 12.1172 16.0078C11.7995 16.1276 11.5156 16.3047 11.2656 16.5391C11.0208 16.7682 10.8229 17.0495 10.6719 17.3828C10.526 17.7109 10.4531 18.0781 10.4531 18.4844V20.3125C10.4531 20.7188 10.526 21.0859 10.6719 21.4141C10.8177 21.7422 11.013 22.0234 11.2578 22.2578C11.5026 22.487 11.7839 22.6641 12.1016 22.7891C12.4245 22.9141 12.7604 22.974 13.1094 22.9688H16.7734C17.1745 22.9688 17.5365 22.9036 17.8594 22.7734C18.1875 22.638 18.4661 22.4531 18.6953 22.2188C18.9245 21.9844 19.1016 21.7057 19.2266 21.3828C19.3516 21.0547 19.4141 20.6979 19.4141 20.3125V18.4844ZM18.5312 17C18.6094 17.1146 18.6615 17.2396 18.6875 17.375C18.7135 17.5052 18.7135 17.6354 18.6875 17.7656C18.6615 17.8906 18.6094 18.0104 18.5312 18.125C18.4583 18.2344 18.362 18.3281 18.2422 18.4062L12.7578 22.0703C12.6693 22.138 12.5781 22.1849 12.4844 22.2109C12.3906 22.237 12.2943 22.25 12.1953 22.25C12.0286 22.25 11.8698 22.2109 11.7188 22.1328C11.5677 22.0547 11.4453 21.9427 11.3516 21.7969C11.2734 21.6823 11.2214 21.5599 11.1953 21.4297C11.1693 21.2943 11.1667 21.1641 11.1875 21.0391C11.2135 20.9089 11.263 20.7891 11.3359 20.6797C11.4089 20.5651 11.5052 20.4688 11.625 20.3906L17.125 16.7266C17.2396 16.6484 17.362 16.5964 17.4922 16.5703C17.6276 16.5443 17.7578 16.5443 17.8828 16.5703C18.013 16.5964 18.1328 16.6458 18.2422 16.7188C18.3568 16.7917 18.4531 16.8854 18.5312 17ZM32.9453 16.5547L29.2969 20.5391L33.4062 25H30.6094L27.9062 22.0547L25.2031 25H22.3984L26.5 20.5234L22.8672 16.5547H25.6484L27.8906 19L30.1484 16.5547H32.9453Z" fill="#080E14"/>
</svg>
