<svg width="40" height="40" viewBox="0 0 40 40" fill="none" xmlns="http://www.w3.org/2000/svg">
<path d="M3.616 12.16V27.84C3.616 28.848 4.144 29.76 5.024 30.272L18.608 38.112C19.472 38.608 20.544 38.608 21.408 38.112L34.992 30.272C35.856 29.776 36.4 28.848 36.4 27.84V12.16C36.4 11.152 35.872 10.24 34.992 9.728L21.408 1.888C20.544 1.392 19.472 1.392 18.608 1.888L5.024 9.728C4.16 10.224 3.632 11.152 3.632 12.16H3.616Z" fill="#213147"/>
<path d="M22.96 23.04L21.024 28.352C20.976 28.496 20.976 28.656 21.024 28.816L24.352 37.952L28.208 35.728L23.584 23.04C23.472 22.752 23.072 22.752 22.96 23.04Z" fill="#12AAFF"/>
<path d="M26.848 14.112C26.736 13.824 26.336 13.824 26.224 14.112L24.288 19.424C24.24 19.568 24.24 19.728 24.288 19.888L29.744 34.848L33.6 32.624L26.848 14.128V14.112Z" fill="#12AAFF"/>
<path d="M20 2.48C20.096 2.48 20.192 2.512 20.272 2.56L34.96 11.04C35.136 11.136 35.232 11.328 35.232 11.52V28.48C35.232 28.672 35.12 28.864 34.96 28.96L20.272 37.44C20.192 37.488 20.096 37.52 20 37.52C19.904 37.52 19.808 37.488 19.728 37.44L5.04 28.96C4.864 28.864 4.768 28.672 4.768 28.48V11.504C4.768 11.312 4.88 11.12 5.04 11.024L19.728 2.544C19.808 2.496 19.904 2.464 20 2.464V2.48ZM20 0C19.472 0 18.96 0.128 18.48 0.4L3.792 8.88C2.848 9.424 2.272 10.416 2.272 11.504V28.464C2.272 29.552 2.848 30.544 3.792 31.088L18.48 39.568C18.944 39.84 19.472 39.968 20 39.968C20.528 39.968 21.04 39.84 21.52 39.568L36.208 31.088C37.152 30.544 37.728 29.552 37.728 28.464V11.504C37.728 10.416 37.152 9.424 36.208 8.88L21.504 0.4C21.04 0.128 20.512 0 19.984 0H20Z" fill="#9DCCED"/>
<path d="M10.272 34.864L11.632 31.152L14.352 33.408L11.808 35.744L10.272 34.864Z" fill="#213147"/>
<path d="M18.752 10.304H15.024C14.752 10.304 14.496 10.48 14.4 10.736L6.416 32.624L10.272 34.848L19.072 10.736C19.152 10.512 18.992 10.288 18.768 10.288L18.752 10.304Z" fill="white"/>
<path d="M25.28 10.304H21.552C21.28 10.304 21.024 10.48 20.928 10.736L11.808 35.728L15.664 37.952L25.584 10.736C25.664 10.512 25.504 10.288 25.28 10.288V10.304Z" fill="white"/>
</svg>
