<svg width="40" height="40" viewBox="0 0 40 40" fill="none" xmlns="http://www.w3.org/2000/svg">
<path d="M8.40201 32H13.2782C14.4263 32 15.0003 32 15.5126 31.8622C16.0743 31.7001 16.5866 31.4125 17.0125 31.0167C17.4037 30.6547 17.6859 30.175 18.2427 29.2286L18.2593 29.2002L24.5836 18.3415C25.1453 17.3883 25.4231 16.9086 25.5465 16.405C25.6823 15.8595 25.6823 15.2839 25.5465 14.7384C25.424 14.2386 25.1434 13.7624 24.5901 12.8233L22.1023 8.60523C21.59 7.72991 21.3308 7.29225 21.0036 7.13039C20.6518 6.95654 20.2321 6.95654 19.8802 7.13039C19.5531 7.29225 19.2939 7.72991 18.7816 8.60523L6.74164 29.2182C6.23551 30.0815 5.98241 30.5133 6.00095 30.8669C6.02564 31.2506 6.22932 31.5983 6.56265 31.8083C6.87125 32 7.37737 32 8.40201 32Z" fill="#E84142"/>
<path d="M32.5792 32H25.5922C24.5614 32 24.0429 32 23.7405 31.8083C23.4072 31.5983 23.2035 31.2448 23.1788 30.861C23.1604 30.5101 23.4155 30.0824 23.9259 29.2265L23.938 29.2063L27.4254 23.3909C27.9377 22.5336 28.1969 22.108 28.5179 21.9461C28.8696 21.7722 29.2834 21.7722 29.6351 21.9461C29.9537 22.1037 30.2019 22.5113 30.6932 23.3182L30.7338 23.385L34.2336 29.2003C34.2461 29.2213 34.2584 29.242 34.2706 29.2624C34.2751 29.2699 34.2796 29.2774 34.2841 29.2849C34.7692 30.098 35.0168 30.513 34.9991 30.8552C34.9804 31.2386 34.7706 31.5925 34.4374 31.8024C34.1286 32 33.61 32 32.5792 32Z" fill="#E84142"/>
</svg>
