<svg width="40" height="40" viewBox="0 0 40 40" fill="none" xmlns="http://www.w3.org/2000/svg">
<path fill-rule="evenodd" clip-rule="evenodd" d="M14.175 17.6L20 11.775L25.825 17.6L29.225 14.2L20 4.97501L10.775 14.2L14.175 17.6ZM5 20L8.4 16.6L11.8 20L8.4 23.4L5 20ZM20 28.225L14.175 22.4L10.775 25.775L20 35L29.225 25.775L25.825 22.375L20 28.2V28.225ZM28.225 20L31.625 16.6L35.025 20L31.625 23.4L28.225 20ZM20 16.55L23.45 20L20 23.45L16.55 20.025L17.15 19.4L17.45 19.1L20 16.55Z" fill="#EFB90B"/>
</svg>
