<svg width="40" height="40" viewBox="0 0 40 40" fill="none" xmlns="http://www.w3.org/2000/svg">
<g clip-path="url(#clip0_86_223)">
<path d="M18.2667 0.383338C19.24 -0.128329 20.7184 -0.128329 21.6917 0.383338L31.6117 5.59667C32.1967 5.90334 32.5184 6.36334 32.5767 6.83667H32.5851V33.04C32.5734 33.5567 32.2484 34.0683 31.6117 34.4033L21.6917 39.6167C20.7184 40.1283 19.24 40.1283 18.2667 39.6167L8.34672 34.4033C7.71338 34.07 7.40838 33.5533 7.39338 33.04C7.39191 32.9972 7.39191 32.9544 7.39338 32.9117V7.005C7.39248 6.97668 7.39248 6.94833 7.39338 6.92V6.83667H7.39838C7.44172 6.35667 7.74838 5.91 8.34838 5.59667L18.2667 0.383338ZM31.0234 21.455L21.69 26.36C20.7184 26.87 19.24 26.87 18.2667 26.36L8.95505 21.4667V32.9883L18.2667 37.855C18.7934 38.135 19.3384 38.4083 19.8734 38.4433L19.98 38.4467C20.535 38.4467 21.075 38.1667 21.6234 37.9017L31.0234 32.9467V21.455ZM5.78005 32.4717C5.78005 33.4733 5.89672 34.1333 6.13005 34.5983C6.32338 34.985 6.61338 35.2783 7.14172 35.6367L7.17172 35.6583C7.30334 35.746 7.4367 35.831 7.57172 35.9133L7.75505 36.025L8.31838 36.3633L7.51005 37.6917L6.88005 37.3133L6.77338 37.2483C6.61304 37.1504 6.45467 37.0493 6.29838 36.945C4.79172 35.935 4.23005 34.8333 4.21838 32.54V32.47L5.78005 32.4717ZM19.1967 14.4317C19.128 14.4549 19.0611 14.4833 18.9967 14.5167L9.07672 19.73C9.06664 19.7354 9.05664 19.741 9.04672 19.7467L9.03838 19.7517L9.05505 19.76L9.07672 19.7717L18.9967 24.985C19.0616 25.019 19.129 25.048 19.1984 25.0717L19.1967 14.4317ZM20.7601 14.4317V25.0717C20.8294 25.048 20.8968 25.019 20.9617 24.985L30.8817 19.7717C30.8918 19.7662 30.9018 19.7607 30.9117 19.755L30.92 19.7517L30.9034 19.7433L30.8817 19.73L20.9617 14.5167C20.8968 14.4832 20.8294 14.4548 20.7601 14.4317ZM31.0234 8.695L22.1234 13.3717L31.0234 18.0483V8.695ZM8.95505 8.705V18.0383L17.8334 13.3717L8.95505 8.705ZM20.9617 1.75667C20.445 1.485 19.5117 1.485 18.9967 1.75667L9.07672 6.97C9.06663 6.9754 9.05663 6.98096 9.04672 6.98667L9.03838 6.99167L9.05505 7L9.07672 7.01167L18.9967 12.225C19.5134 12.4967 20.4467 12.4967 20.9617 12.225L30.8817 7.01167C30.8918 7.00628 30.9018 7.00072 30.9117 6.995L30.92 6.99167L30.9034 6.98167L30.8817 6.97L20.9617 1.75667ZM32.49 2.32834L33.12 2.70667L33.2267 2.77334C33.4101 2.885 33.5601 2.98 33.7017 3.075C35.2084 4.08667 35.77 5.18834 35.7817 7.48V7.55H34.22C34.22 6.54667 34.1034 5.88667 33.8701 5.42167C33.6767 5.03667 33.3867 4.74167 32.8584 4.38334L32.8284 4.36334C32.6967 4.27575 32.5634 4.19073 32.4284 4.10834L32.245 3.99667L31.6817 3.65834L32.49 2.32834Z" fill="#0362F9"/>
</g>
<defs>
<clipPath id="clip0_86_223">
<rect width="40" height="40" fill="white"/>
</clipPath>
</defs>
</svg>
