<svg width="40" height="40" viewBox="0 0 40 40" fill="none" xmlns="http://www.w3.org/2000/svg">
<path d="M20 3.33334C17.8113 3.33334 15.644 3.76444 13.622 4.60202C11.5999 5.4396 9.76254 6.66725 8.2149 8.2149C5.08929 11.3405 3.33334 15.5797 3.33334 20C3.33334 27.3667 8.11668 33.6167 14.7333 35.8333C15.5667 35.9667 15.8333 35.45 15.8333 35V32.1833C11.2167 33.1833 10.2333 29.95 10.2333 29.95C9.46668 28.0167 8.38334 27.5 8.38334 27.5C6.86668 26.4667 8.50001 26.5 8.50001 26.5C10.1667 26.6167 11.05 28.2167 11.05 28.2167C12.5 30.75 14.95 30 15.9 29.6C16.05 28.5167 16.4833 27.7833 16.95 27.3667C13.25 26.95 9.36668 25.5167 9.36668 19.1667C9.36668 17.3167 10 15.8333 11.0833 14.65C10.9167 14.2333 10.3333 12.5 11.25 10.25C11.25 10.25 12.65 9.80001 15.8333 11.95C17.15 11.5833 18.5833 11.4 20 11.4C21.4167 11.4 22.85 11.5833 24.1667 11.95C27.35 9.80001 28.75 10.25 28.75 10.25C29.6667 12.5 29.0833 14.2333 28.9167 14.65C30 15.8333 30.6333 17.3167 30.6333 19.1667C30.6333 25.5333 26.7333 26.9333 23.0167 27.35C23.6167 27.8667 24.1667 28.8833 24.1667 30.4333V35C24.1667 35.45 24.4333 35.9833 25.2833 35.8333C31.9 33.6 36.6667 27.3667 36.6667 20C36.6667 17.8113 36.2356 15.644 35.398 13.622C34.5604 11.5999 33.3328 9.76254 31.7851 8.2149C30.2375 6.66725 28.4002 5.4396 26.3781 4.60202C24.356 3.76444 22.1887 3.33334 20 3.33334Z" fill="#080E14"/>
</svg>
