<svg width="92" height="40" viewBox="0 0 92 40" fill="none" xmlns="http://www.w3.org/2000/svg">
<rect width="40" height="40" rx="20" fill="#080E14"/>
<path d="M21.4609 20.3125C21.4609 20.7708 21.401 21.2057 21.2812 21.6172C21.1667 22.0234 21.0026 22.401 20.7891 22.75C20.5755 23.099 20.3229 23.4115 20.0312 23.6875C19.7396 23.9635 19.4193 24.2005 19.0703 24.3984C18.7266 24.5911 18.3594 24.7396 17.9688 24.8438C17.5781 24.9479 17.1797 25 16.7734 25H13.1094C12.6979 25 12.2969 24.9479 11.9062 24.8438C11.5156 24.7396 11.1458 24.5911 10.7969 24.3984C10.4531 24.2005 10.1354 23.9635 9.84375 23.6875C9.55208 23.4115 9.29948 23.099 9.08594 22.75C8.8776 22.401 8.71354 22.0234 8.59375 21.6172C8.47917 21.2057 8.42188 20.7708 8.42188 20.3125V18.4844C8.42188 17.7969 8.54948 17.1667 8.80469 16.5938C9.0651 16.0208 9.41146 15.5286 9.84375 15.1172C10.276 14.7005 10.7734 14.3776 11.3359 14.1484C11.9036 13.9141 12.4948 13.7969 13.1094 13.7969H16.7734C17.1797 13.7969 17.5781 13.849 17.9688 13.9531C18.3594 14.0573 18.7266 14.2083 19.0703 14.4062C19.4193 14.599 19.7396 14.8333 20.0312 15.1094C20.3229 15.3854 20.5755 15.6979 20.7891 16.0469C21.0026 16.3958 21.1667 16.776 21.2812 17.1875C21.401 17.5938 21.4609 18.026 21.4609 18.4844V20.3125ZM19.4141 18.4844C19.4141 18.0833 19.3411 17.7188 19.1953 17.3906C19.0495 17.0625 18.8542 16.7812 18.6094 16.5469C18.3698 16.3125 18.0911 16.1328 17.7734 16.0078C17.4557 15.8828 17.1224 15.8229 16.7734 15.8281H13.1094C12.7708 15.8229 12.4401 15.8828 12.1172 16.0078C11.7995 16.1276 11.5156 16.3047 11.2656 16.5391C11.0208 16.7682 10.8229 17.0495 10.6719 17.3828C10.526 17.7109 10.4531 18.0781 10.4531 18.4844V20.3125C10.4531 20.7188 10.526 21.0859 10.6719 21.4141C10.8177 21.7422 11.013 22.0234 11.2578 22.2578C11.5026 22.487 11.7839 22.6641 12.1016 22.7891C12.4245 22.9141 12.7604 22.974 13.1094 22.9688H16.7734C17.1745 22.9688 17.5365 22.9036 17.8594 22.7734C18.1875 22.638 18.4661 22.4531 18.6953 22.2188C18.9245 21.9844 19.1016 21.7057 19.2266 21.3828C19.3516 21.0547 19.4141 20.6979 19.4141 20.3125V18.4844ZM18.5312 17C18.6094 17.1146 18.6615 17.2396 18.6875 17.375C18.7135 17.5052 18.7135 17.6354 18.6875 17.7656C18.6615 17.8906 18.6094 18.0104 18.5312 18.125C18.4583 18.2344 18.362 18.3281 18.2422 18.4062L12.7578 22.0703C12.6693 22.138 12.5781 22.1849 12.4844 22.2109C12.3906 22.237 12.2943 22.25 12.1953 22.25C12.0286 22.25 11.8698 22.2109 11.7188 22.1328C11.5677 22.0547 11.4453 21.9427 11.3516 21.7969C11.2734 21.6823 11.2214 21.5599 11.1953 21.4297C11.1693 21.2943 11.1667 21.1641 11.1875 21.0391C11.2135 20.9089 11.263 20.7891 11.3359 20.6797C11.4089 20.5651 11.5052 20.4688 11.625 20.3906L17.125 16.7266C17.2396 16.6484 17.362 16.5964 17.4922 16.5703C17.6276 16.5443 17.7578 16.5443 17.8828 16.5703C18.013 16.5964 18.1328 16.6458 18.2422 16.7188C18.3568 16.7917 18.4531 16.8854 18.5312 17ZM32.9453 16.5547L29.2969 20.5391L33.4062 25H30.6094L27.9062 22.0547L25.2031 25H22.3984L26.5 20.5234L22.8672 16.5547H25.6484L27.8906 19L30.1484 16.5547H32.9453Z" fill="#F8FAFB"/>
<path d="M49.6363 27.56C49.3963 27.5733 49.1963 27.46 49.0363 27.22C48.8763 26.98 48.8029 26.78 48.8163 26.62C48.8296 26.4067 48.8896 26.1 48.9963 25.7C49.1029 25.3 49.2229 24.8933 49.3563 24.48C49.4896 24.0667 49.6096 23.74 49.7163 23.5C49.7696 23.2867 49.8163 23.1 49.8563 22.94C49.9096 22.7667 49.9429 22.6533 49.9563 22.6C49.9963 22.5467 50.0563 22.4067 50.1363 22.18C50.2296 21.9533 50.3029 21.7333 50.3563 21.52C50.3829 21.4133 50.4363 21.2133 50.5163 20.92C50.6096 20.6133 50.7163 20.26 50.8363 19.86C50.9696 19.46 51.0963 19.0667 51.2163 18.68C51.3496 18.2933 51.4629 17.9533 51.5563 17.66C51.6496 17.3667 51.7096 17.1733 51.7363 17.08C51.8429 16.92 51.9229 16.7667 51.9763 16.62C52.0296 16.4733 52.0629 16.3733 52.0763 16.32C52.1563 16.2667 52.2029 16.2 52.2163 16.12C52.2296 16.0267 52.2363 15.9533 52.2363 15.9C52.2363 15.8333 52.2563 15.78 52.2963 15.74C52.3496 15.7 52.3763 15.6533 52.3763 15.6C52.4296 15.56 52.4629 15.5533 52.4763 15.58C52.4896 15.6067 52.5296 15.5867 52.5963 15.52L52.6963 14.84L54.4763 14.82C54.4496 14.98 54.4096 15.18 54.3563 15.42C54.3029 15.6467 54.1763 15.9533 53.9763 16.34C53.9096 16.6067 53.8296 16.8467 53.7363 17.06C53.6563 17.2733 53.6229 17.4133 53.6363 17.48C53.6096 17.5067 53.5496 17.64 53.4563 17.88C53.3763 18.12 53.2763 18.4133 53.1563 18.76C53.0496 19.1067 52.9363 19.4533 52.8163 19.8C52.7096 20.1467 52.6096 20.4533 52.5163 20.72C52.4363 20.9733 52.3829 21.1333 52.3563 21.2C52.2496 21.4133 52.1296 21.7267 51.9963 22.14C51.8629 22.5533 51.6629 23.1133 51.3963 23.82C51.2896 24.0333 51.1563 24.3533 50.9963 24.78C50.8496 25.2067 50.7296 25.5933 50.6363 25.94C50.4896 26.46 50.3563 26.8333 50.2363 27.06C50.1296 27.2867 50.0296 27.42 49.9363 27.46C49.8429 27.5133 49.7429 27.5467 49.6363 27.56ZM49.8163 15.8C49.2696 15.8533 48.8963 15.7867 48.6963 15.6C48.5096 15.4133 48.4429 15.2133 48.4963 15C48.5363 14.84 48.6296 14.7067 48.7763 14.6C48.9363 14.48 49.2229 14.38 49.6363 14.3C49.7829 14.2733 49.9696 14.24 50.1963 14.2C50.4363 14.16 50.6629 14.12 50.8763 14.08C51.3163 14.0267 51.6763 13.98 51.9563 13.94C52.2496 13.9 52.5496 13.8667 52.8563 13.84C53.1629 13.8133 53.5496 13.7867 54.0163 13.76C54.4029 13.7333 54.7296 13.7133 54.9963 13.7C55.2763 13.6733 55.4163 13.66 55.4163 13.66C55.4563 13.66 55.5963 13.6733 55.8363 13.7C56.0763 13.7267 56.3363 13.76 56.6163 13.8C56.8963 13.84 57.1029 13.8867 57.2363 13.94C57.5429 14.0067 57.7896 14.1267 57.9763 14.3C58.1629 14.4733 58.2829 14.6733 58.3363 14.9C58.3763 15.06 58.3763 15.1867 58.3363 15.28C58.2963 15.36 58.2229 15.4267 58.1163 15.48C57.8096 15.5733 57.5563 15.6533 57.3563 15.72C57.1696 15.7733 56.9829 15.7667 56.7963 15.7C56.7296 15.6333 56.6496 15.5733 56.5563 15.52C56.4763 15.4667 56.3296 15.4267 56.1163 15.4C55.9163 15.36 55.5963 15.3267 55.1562 15.3C54.7829 15.34 54.4563 15.36 54.1763 15.36C53.8963 15.36 53.7563 15.3933 53.7563 15.46L52.5763 15.52L51.5963 15.62C51.4629 15.6333 51.2763 15.6533 51.0362 15.68C50.7963 15.6933 50.5629 15.7133 50.3363 15.74C50.1096 15.7533 49.9363 15.7733 49.8163 15.8ZM55.0948 25.96C54.9748 25.8667 54.8415 25.7467 54.6948 25.6C54.5615 25.4533 54.5148 25.2467 54.5548 24.98C54.5948 24.6067 54.6482 24.28 54.7148 24C54.7815 23.7067 54.8615 23.3733 54.9548 23C54.9815 22.84 55.0482 22.5667 55.1548 22.18C55.2748 21.7933 55.4148 21.3733 55.5748 20.92C55.7348 20.4667 55.9015 20.04 56.0748 19.64C56.2482 19.2267 56.4015 18.92 56.5348 18.72C56.6815 18.5867 56.8948 18.52 57.1748 18.52C57.4682 18.52 57.6682 18.5733 57.7748 18.68C57.9215 18.8 57.9682 19.0133 57.9148 19.32C57.8615 19.6133 57.6748 20.0733 57.3548 20.7C57.2882 20.86 57.2015 21.0333 57.0948 21.22C57.0015 21.3933 56.9348 21.54 56.8948 21.66C56.8548 21.7667 56.8682 21.8133 56.9348 21.8C57.0148 21.6533 57.1615 21.4867 57.3748 21.3C57.5882 21.1 57.8148 20.9067 58.0548 20.72C58.2948 20.5333 58.5215 20.3667 58.7348 20.22C58.9482 20.0733 59.0948 19.98 59.1748 19.94C59.2815 19.8733 59.4015 19.82 59.5348 19.78C59.6815 19.7267 59.7815 19.6867 59.8348 19.66C60.1415 19.5133 60.4748 19.46 60.8348 19.5C61.2082 19.5267 61.4348 19.64 61.5148 19.84C61.5282 19.9467 61.5682 20.0267 61.6348 20.08C61.7148 20.1333 61.7548 20.16 61.7548 20.16C61.8082 20.16 61.8348 20.18 61.8348 20.22C61.8482 20.26 61.8548 20.28 61.8548 20.28C61.8548 20.3733 61.7615 20.5067 61.5748 20.68C61.4015 20.8533 61.2082 20.9467 60.9948 20.96C60.8215 20.9733 60.6682 21.0067 60.5348 21.06C60.4015 21.1133 60.2415 21.18 60.0548 21.26C59.5482 21.5533 59.0882 21.8133 58.6748 22.04C58.2748 22.2667 57.8615 22.6133 57.4348 23.08C57.3415 23.1867 57.2415 23.2867 57.1348 23.38C57.0282 23.4733 56.9215 23.6067 56.8148 23.78C56.7482 23.8467 56.6815 23.9933 56.6148 24.22C56.5482 24.4467 56.4882 24.6667 56.4348 24.88C56.3948 25.08 56.3748 25.2 56.3748 25.24C56.3748 25.24 56.3548 25.3067 56.3148 25.44C56.2748 25.56 56.2082 25.68 56.1148 25.8C55.9548 26.0133 55.7948 26.1467 55.6348 26.2C55.4882 26.2533 55.3082 26.1733 55.0948 25.96ZM62.3042 26.08C62.2509 25.9733 62.1309 25.8667 61.9442 25.76C61.7709 25.6533 61.6842 25.5733 61.6842 25.52C61.6842 25.4667 61.6509 25.3867 61.5842 25.28C61.5309 25.16 61.4776 25.0733 61.4242 25.02C61.3576 24.94 61.3776 24.7467 61.4842 24.44C61.5909 24.12 61.7509 23.7333 61.9642 23.28C62.1776 22.8267 62.4109 22.3667 62.6642 21.9C62.7709 21.7933 62.8776 21.6533 62.9842 21.48C63.0909 21.3067 63.1709 21.1933 63.2242 21.14C63.2242 21.0867 63.2442 21.04 63.2842 21C63.3242 20.9467 63.3709 20.92 63.4242 20.92L63.5842 20.6C63.6109 20.5467 63.6909 20.44 63.8242 20.28C63.9709 20.12 64.1442 19.9467 64.3442 19.76C64.5442 19.56 64.7442 19.3733 64.9442 19.2C65.1576 19.0267 65.3309 18.9 65.4642 18.82C65.7442 18.6333 66.0309 18.5467 66.3242 18.56C66.6309 18.5733 66.8909 18.6667 67.1042 18.84C67.1442 18.88 67.2309 18.96 67.3642 19.08C67.5109 19.2 67.6709 19.3333 67.8442 19.48C68.0309 19.6267 68.1909 19.76 68.3242 19.88L69.0642 20.54L68.7242 21.54C68.5509 22.0733 68.5042 22.54 68.5842 22.94C68.6642 23.34 68.7909 23.6867 68.9642 23.98C69.0309 24.1267 69.1176 24.24 69.2242 24.32C69.3442 24.4 69.4976 24.4533 69.6842 24.48C69.7909 24.4933 69.8909 24.5333 69.9842 24.6C70.0776 24.6667 70.1242 24.7733 70.1242 24.92C70.1242 25.24 70.0642 25.4733 69.9442 25.62C69.8376 25.7533 69.7176 25.8333 69.5842 25.86C69.1442 25.9133 68.7242 25.8667 68.3242 25.72C67.9242 25.5733 67.5642 25.1933 67.2442 24.58C67.1909 24.5 67.1176 24.3533 67.0242 24.14C66.9442 23.9133 66.8976 23.7667 66.8842 23.7C66.8309 23.7667 66.7576 23.8533 66.6642 23.96C66.5842 24.0533 66.5042 24.14 66.4242 24.22C65.4776 25.18 64.6642 25.8067 63.9842 26.1C63.3176 26.38 62.7576 26.3733 62.3042 26.08ZM63.4042 24.42C63.4976 24.4333 63.6442 24.3867 63.8442 24.28C64.0442 24.16 64.3109 23.9667 64.6442 23.7C65.0976 23.3133 65.4709 22.9933 65.7642 22.74C66.0576 22.4867 66.3442 22.16 66.6242 21.76L67.0642 21.04C66.9309 20.7333 66.8109 20.5333 66.7042 20.44C66.5976 20.3467 66.4909 20.3 66.3842 20.3C66.2109 20.3 66.0042 20.4133 65.7642 20.64C65.5242 20.8533 65.2509 21.1733 64.9442 21.6C64.6509 22.0133 64.3176 22.5333 63.9442 23.16C63.7709 23.4533 63.6376 23.74 63.5442 24.02C63.4509 24.2867 63.4042 24.42 63.4042 24.42ZM72.51 26.34C72.2167 26.34 71.9967 26.3267 71.85 26.3C71.7167 26.2733 71.6167 26.2333 71.55 26.18C71.4833 26.1267 71.3967 26.0533 71.29 25.96C71.2367 25.8533 71.1433 25.72 71.01 25.56C70.8767 25.3867 70.7833 25.2733 70.73 25.22C70.6767 25.02 70.6567 24.7467 70.67 24.4C70.6967 24.0533 70.7567 23.68 70.85 23.28C70.9433 22.88 71.0567 22.52 71.19 22.2C71.2433 22.0933 71.29 21.9867 71.33 21.88C71.37 21.7733 71.39 21.72 71.39 21.72C71.39 21.6533 71.47 21.4933 71.63 21.24C71.8033 20.9867 71.99 20.72 72.19 20.44C72.4033 20.16 72.5767 19.96 72.71 19.84C72.8033 19.7333 72.9433 19.62 73.13 19.5C73.33 19.38 73.5033 19.2933 73.65 19.24C73.7967 19.1867 73.9967 19.12 74.25 19.04C74.5033 18.9467 74.73 18.9 74.93 18.9C75.1167 18.9 75.3167 18.94 75.53 19.02C75.7433 19.1 75.9233 19.24 76.07 19.44C76.31 19.68 76.4633 19.9667 76.53 20.3C76.5967 20.6333 76.6033 20.92 76.55 21.16C76.4833 21.4267 76.35 21.6467 76.15 21.82C75.95 21.98 75.7367 22.0667 75.51 22.08C75.2833 22.08 75.0833 21.9867 74.91 21.8C74.8567 21.6933 74.83 21.6067 74.83 21.54C74.83 21.46 74.8567 21.3467 74.91 21.2C74.9633 21.0133 74.99 20.8467 74.99 20.7C74.99 20.5533 74.93 20.48 74.81 20.48C74.6367 20.48 74.4967 20.5333 74.39 20.64C74.2833 20.7333 74.1233 20.8933 73.91 21.12C73.8167 21.2267 73.6967 21.38 73.55 21.58C73.4033 21.78 73.2567 22 73.11 22.24C72.9767 22.4667 72.8567 22.7 72.75 22.94C72.6033 23.38 72.51 23.6667 72.47 23.8C72.4433 23.92 72.43 23.98 72.43 23.98C72.43 24.0333 72.4233 24.0867 72.41 24.14C72.3967 24.18 72.39 24.2267 72.39 24.28C72.39 24.44 72.4833 24.5667 72.67 24.66C72.8167 24.7533 72.9367 24.8 73.03 24.8C73.1367 24.7867 73.3367 24.7133 73.63 24.58C73.8433 24.4733 74.0433 24.3333 74.23 24.16C74.43 23.9867 74.6367 23.8333 74.85 23.7C74.9967 23.6067 75.11 23.5267 75.19 23.46C75.2833 23.3933 75.33 23.3867 75.33 23.44C75.33 23.4933 75.35 23.52 75.39 23.52C75.43 23.52 75.4767 23.4933 75.53 23.44C75.61 23.3333 75.71 23.2933 75.83 23.32C75.95 23.3333 76.0567 23.3667 76.15 23.42C76.2567 23.4733 76.31 23.52 76.31 23.56C76.2833 23.68 76.31 23.78 76.39 23.86C76.39 23.9133 76.37 23.9867 76.33 24.08C76.3033 24.16 76.2633 24.2267 76.21 24.28C76.1433 24.3733 76.0433 24.5067 75.91 24.68C75.79 24.8533 75.6767 25.0067 75.57 25.14C75.4633 25.2733 75.41 25.34 75.41 25.34C75.3567 25.3267 75.3033 25.34 75.25 25.38C75.21 25.42 75.1633 25.4667 75.11 25.52C75.0033 25.6133 74.9033 25.6867 74.81 25.74C74.7167 25.78 74.6433 25.8 74.59 25.8C74.4967 25.8533 74.4233 25.8867 74.37 25.9C74.33 25.9133 74.31 25.9467 74.31 26C74.1767 26.1333 73.9367 26.2267 73.59 26.28C73.2433 26.32 72.8833 26.34 72.51 26.34ZM79.977 26.86C79.2437 26.86 78.677 26.6467 78.277 26.22C77.8904 25.7933 77.697 25.14 77.697 24.26C77.697 23.78 77.7837 23.2533 77.957 22.68C78.1437 22.1067 78.3837 21.5467 78.677 21C78.9837 20.4533 79.317 19.98 79.677 19.58C80.037 19.1667 80.397 18.88 80.757 18.72C80.8904 18.6533 81.0304 18.6067 81.177 18.58C81.337 18.54 81.4904 18.52 81.637 18.52C81.797 18.52 81.9704 18.5333 82.157 18.56C82.357 18.5733 82.5437 18.6133 82.717 18.68C83.0237 18.7733 83.2904 18.9533 83.517 19.22C83.757 19.4867 83.877 19.8733 83.877 20.38C83.877 20.5133 83.8637 20.66 83.837 20.82C83.8104 20.9667 83.7637 21.1133 83.697 21.26C83.5237 21.7 83.257 22.12 82.897 22.52C82.5504 22.92 82.1837 23.2 81.797 23.36C81.6904 23.4133 81.5837 23.4533 81.477 23.48C81.3837 23.4933 81.2837 23.5 81.177 23.5C80.897 23.5 80.6437 23.46 80.417 23.38C80.2037 23.3 80.0037 23.1933 79.817 23.06L79.657 22.92L79.557 23.12C79.4637 23.3733 79.397 23.5867 79.357 23.76C79.3304 23.9333 79.317 24.06 79.317 24.14C79.317 24.3 79.3237 24.4667 79.337 24.64C79.3504 24.8 79.3904 24.9333 79.457 25.04C79.5104 25.1067 79.577 25.16 79.657 25.2C79.7504 25.24 79.8637 25.26 79.997 25.26C80.077 25.26 80.1504 25.26 80.217 25.26C80.297 25.2467 80.3637 25.2333 80.417 25.22C80.657 25.1667 80.8504 25.08 80.997 24.96C81.157 24.8267 81.3237 24.7133 81.497 24.62L81.577 24.58L81.557 24.52C81.7837 24.4 81.937 24.3267 82.017 24.3C82.097 24.26 82.157 24.2267 82.197 24.2C82.2504 24.1467 82.3104 24.12 82.377 24.12C82.5637 24.0933 82.7437 24.1467 82.917 24.28C83.1037 24.4 83.197 24.5533 83.197 24.74C83.197 24.82 83.137 24.9467 83.017 25.12C82.9104 25.2933 82.7704 25.4667 82.597 25.64C82.437 25.8 82.2704 25.9267 82.097 26.02C82.057 26.0333 82.017 26.0533 81.977 26.08C81.937 26.0933 81.897 26.1133 81.857 26.14H81.877C81.757 26.3 81.637 26.38 81.517 26.38H81.357C81.3037 26.4733 81.1304 26.5733 80.837 26.68C80.5437 26.8 80.257 26.86 79.977 26.86ZM81.017 22.04C81.137 22.04 81.2437 22.02 81.337 21.98C81.4437 21.94 81.5437 21.8933 81.637 21.84C81.957 21.6133 82.1637 21.32 82.257 20.96C82.3504 20.6 82.317 20.3267 82.157 20.14C82.1304 20.1 82.097 20.0733 82.057 20.06C82.017 20.0333 81.9704 20.02 81.917 20.02C81.7704 20.02 81.6037 20.0667 81.417 20.16C81.2437 20.2533 81.0704 20.3867 80.897 20.56C80.7237 20.7333 80.5637 20.94 80.417 21.18L80.157 21.6C80.1837 21.5867 80.2037 21.58 80.217 21.58C80.2437 21.5667 80.2637 21.56 80.277 21.56C80.397 21.56 80.477 21.6 80.517 21.68C80.557 21.76 80.6037 21.84 80.657 21.92C80.7237 22 80.8437 22.04 81.017 22.04ZM85.2367 26.2C85.1434 26.2 85.0167 26.1333 84.8567 26C84.7101 25.8667 84.6234 25.7467 84.5967 25.64C84.5567 25.5333 84.5567 25.38 84.5967 25.18C84.6501 24.9667 84.7234 24.72 84.8167 24.44C84.9234 24 84.9967 23.68 85.0367 23.48C85.0767 23.28 85.1167 23.1067 85.1567 22.96C85.1967 22.8133 85.2501 22.6 85.3167 22.32C85.3967 22.1467 85.4567 21.98 85.4967 21.82C85.5501 21.6467 85.6034 21.4733 85.6567 21.3C85.7234 21.1267 85.7967 20.9533 85.8767 20.78C85.9701 20.4333 86.0834 20.1067 86.2167 19.8C86.3634 19.48 86.5034 19.2133 86.6367 19C86.6634 18.96 86.7234 18.8867 86.8167 18.78C86.9101 18.6733 86.9834 18.62 87.0367 18.62C87.1434 18.5133 87.2901 18.48 87.4767 18.52C87.6634 18.5467 87.8234 18.6133 87.9567 18.72C88.1167 18.8933 88.2034 19.1 88.2167 19.34C88.2434 19.5667 88.1501 19.8867 87.9367 20.3C87.7767 20.7133 87.6234 21.04 87.4767 21.28C87.3434 21.5067 87.2101 21.7733 87.0767 22.08C87.2234 21.8667 87.4034 21.6467 87.6167 21.42C87.8301 21.1933 87.9967 21.0133 88.1167 20.88C88.2901 20.6933 88.4501 20.5467 88.5967 20.44C88.7567 20.32 88.9701 20.1733 89.2367 20C89.4634 19.84 89.6901 19.6933 89.9167 19.56C90.1567 19.4267 90.4434 19.3867 90.7767 19.44C90.9101 19.4267 91.0501 19.4933 91.1967 19.64C91.3567 19.7867 91.4767 19.98 91.5567 20.22C91.6501 20.4467 91.6501 20.6933 91.5567 20.96C91.2501 20.8933 90.9767 20.9067 90.7367 21C90.4967 21.08 90.2901 21.18 90.1167 21.3C89.9567 21.42 89.8301 21.5133 89.7367 21.58C89.6034 21.66 89.4501 21.7667 89.2767 21.9C89.1034 22.02 88.9167 22.16 88.7167 22.32C88.5167 22.4667 88.3034 22.6333 88.0767 22.82C87.7567 23.0867 87.5167 23.32 87.3567 23.52C87.1967 23.72 87.0701 23.9333 86.9767 24.16C86.8967 24.36 86.7967 24.6 86.6767 24.88C86.5567 25.16 86.4434 25.4133 86.3367 25.64C86.2301 25.8533 86.1434 25.9867 86.0767 26.04C86.0101 26.1733 85.8701 26.2467 85.6567 26.26C85.4567 26.2733 85.3167 26.2533 85.2367 26.2Z" fill="#080E14"/>
</svg>
