<svg width="40" height="40" viewBox="0 0 40 40" fill="none" xmlns="http://www.w3.org/2000/svg">
<path d="M11.5244 30.2539C10.0179 30.2539 8.7526 29.9619 7.72852 29.3779C6.71289 28.7939 5.94271 27.973 5.41797 26.915C4.89323 25.8486 4.63086 24.6045 4.63086 23.1826C4.63086 22.2178 4.71549 21.2529 4.88477 20.2881C5.0625 19.3232 5.32487 18.3923 5.67188 17.4951C6.02734 16.598 6.47168 15.7643 7.00488 14.9941C7.54655 14.224 8.18132 13.5511 8.90918 12.9756C9.63704 12.4001 10.4622 11.9515 11.3848 11.6299C12.3073 11.3083 13.3314 11.1475 14.457 11.1475C16.7083 11.1475 18.401 11.7822 19.5352 13.0518C20.6777 14.3128 21.249 15.9928 21.249 18.0918C21.249 19.099 21.1644 20.0977 20.9951 21.0879C20.8343 22.0781 20.5804 23.026 20.2334 23.9316C19.8949 24.8372 19.459 25.6751 18.9258 26.4453C18.401 27.207 17.779 27.8757 17.0596 28.4512C16.3402 29.0182 15.5192 29.4626 14.5967 29.7842C13.6826 30.0973 12.6585 30.2539 11.5244 30.2539ZM11.8037 26.9531C12.3115 26.9531 12.7982 26.86 13.2637 26.6738C13.7292 26.4876 14.165 26.221 14.5713 25.874C14.9775 25.5186 15.3457 25.0869 15.6758 24.5791C16.0143 24.0628 16.3021 23.4831 16.5391 22.8398C16.776 22.1882 16.958 21.473 17.085 20.6943C17.2204 19.9157 17.2881 19.082 17.2881 18.1934C17.2881 17.0508 17.0215 16.1367 16.4883 15.4512C15.9635 14.7656 15.1807 14.4229 14.1396 14.4229C13.6064 14.4229 13.0944 14.5286 12.6035 14.7402C12.1211 14.9518 11.6725 15.2523 11.2578 15.6416C10.8516 16.0309 10.4834 16.4922 10.1533 17.0254C9.82324 17.5586 9.53971 18.151 9.30273 18.8027C9.06576 19.4544 8.88379 20.1484 8.75684 20.8848C8.63835 21.6211 8.5791 22.387 8.5791 23.1826C8.5791 24.0036 8.70605 24.6976 8.95996 25.2646C9.21387 25.8232 9.58203 26.2464 10.0645 26.5342C10.5469 26.8135 11.1266 26.9531 11.8037 26.9531ZM22.7344 30L26.6572 11.4395H31.8369C33.3434 11.4395 34.5495 11.668 35.4551 12.125C36.3691 12.5736 37.0293 13.2041 37.4355 14.0166C37.8503 14.8291 38.0576 15.7728 38.0576 16.8477C38.0576 17.9479 37.8545 18.9085 37.4482 19.7295C37.042 20.5505 36.4707 21.236 35.7344 21.7861C35.0065 22.3278 34.1517 22.734 33.1699 23.0049C32.1882 23.2673 31.1217 23.3984 29.9707 23.3984H27.9902L26.6064 30H22.7344ZM28.6885 20.1738H30.2754C31.0456 20.1738 31.7184 20.0469 32.2939 19.793C32.8779 19.5391 33.3307 19.1709 33.6523 18.6885C33.9824 18.2061 34.1475 17.6263 34.1475 16.9492C34.1475 16.1706 33.9401 15.5951 33.5254 15.2227C33.1191 14.8503 32.5055 14.6641 31.6846 14.6641H29.8564L28.6885 20.1738Z" fill="#FE0521"/>
</svg>
