<svg width="40" height="40" viewBox="0 0 40 40" fill="none" xmlns="http://www.w3.org/2000/svg">
<path d="M26.8431 15.3881C26.5826 15.2493 26.2918 15.1766 25.9966 15.1766C25.7013 15.1766 25.4106 15.2493 25.15 15.3881L21.3331 17.6453L18.6669 19.1272L14.85 21.3856C14.5894 21.5245 14.2987 21.5971 14.0035 21.5971C13.7082 21.5971 13.4175 21.5245 13.1569 21.3856L10.1235 19.6203C9.87378 19.4763 9.66496 19.2711 9.51672 19.0239C9.36847 18.7767 9.28572 18.4959 9.27626 18.2078V14.6841C9.27088 14.3929 9.34742 14.1061 9.49716 13.8564C9.6469 13.6066 9.8638 13.404 10.1231 13.2716L13.1569 11.5787C13.4173 11.4393 13.7081 11.3663 14.0035 11.3663C14.2988 11.3663 14.5896 11.4393 14.85 11.5787L17.8835 13.2719C18.1331 13.4159 18.3418 13.6212 18.49 13.8683C18.6382 14.1155 18.7209 14.3963 18.7303 14.6844V16.94L21.3331 15.3884V13.2022C21.3402 12.9125 21.2659 12.6266 21.1188 12.3769C20.9717 12.1273 20.7575 11.9238 20.5006 11.7897L14.9194 8.54531C14.659 8.40585 14.3682 8.33289 14.0728 8.33289C13.7775 8.33289 13.4866 8.40585 13.2263 8.54531L7.58314 11.7897C7.30141 11.8991 7.06126 12.0944 6.8967 12.3479C6.73215 12.6014 6.65153 12.9003 6.66626 13.2022V19.7619C6.66214 20.0518 6.73932 20.3371 6.88906 20.5854C7.03879 20.8338 7.2551 21.0352 7.51345 21.1669L13.1569 24.4191C13.4175 24.5579 13.7082 24.6306 14.0035 24.6306C14.2987 24.6306 14.5894 24.5579 14.85 24.4191L18.6669 22.2316L21.2769 20.68L25.0806 18.4997C25.3412 18.3608 25.6319 18.2882 25.9272 18.2882C26.2225 18.2882 26.5132 18.3608 26.7738 18.4997L29.8072 20.1928C30.0567 20.3368 30.2654 20.5422 30.4134 20.7893C30.5614 21.0365 30.6439 21.3173 30.6531 21.6053V25.0622C30.6586 25.3531 30.5821 25.6396 30.4325 25.8891C30.283 26.1386 30.0663 26.3411 29.8072 26.4734L26.7738 28.2359C26.5134 28.3754 26.2226 28.4484 25.9272 28.4484C25.6318 28.4484 25.341 28.3754 25.0806 28.2359L22.0472 26.5428C21.7976 26.3991 21.5888 26.1941 21.4406 25.9472C21.2923 25.7003 21.2095 25.4197 21.2 25.1319V22.8662L18.6669 24.3469V26.6028C18.6613 26.8939 18.7377 27.1806 18.8872 27.4304C19.0368 27.6802 19.2536 27.8828 19.5128 28.0153L25.1563 31.2594C25.4169 31.3988 25.7079 31.4718 26.0035 31.4718C26.299 31.4718 26.59 31.3988 26.8506 31.2594L32.4938 28.0147C32.7418 27.8701 32.9489 27.6649 33.0959 27.4184C33.2428 27.1718 33.3247 26.8919 33.3338 26.605V20.0425C33.3392 19.7515 33.2626 19.4648 33.1128 19.2152C32.963 18.9657 32.746 18.7633 32.4866 18.6312L26.8431 15.3881Z" fill="#7950DD"/>
</svg>
